<?xml version="1.0" encoding="utf-8"?>
<!-- Generator: Adobe Illustrator 24.0.2, SVG Export Plug-In . SVG Version: 6.00 Build 0)  -->
<svg version="1.1" id="Capa_1" xmlns="http://www.w3.org/2000/svg" xmlns:xlink="http://www.w3.org/1999/xlink" x="0px" y="0px"
	 viewBox="0 0 708.66 708.66" style="enable-background:new 0 0 708.66 708.66;" xml:space="preserve">
<style type="text/css">
	.st0{fill:#EFF5F8;}
</style>
<g>
	<path class="st0" d="M554.16,152.13L192.25,583.44c-8.75,10.42-24.29,11.78-34.71,3.04l0,0c-10.42-8.75-11.78-24.29-3.04-34.71
		l361.91-431.31c8.75-10.42,24.29-11.78,34.71-3.04v0C561.55,126.17,562.91,141.71,554.16,152.13z"/>
	<path class="st0" d="M154.5,152.13l361.91,431.31c8.75,10.42,24.29,11.78,34.71,3.04l0,0c10.42-8.75,11.78-24.29,3.04-34.71
		L192.25,120.46c-8.75-10.42-24.29-11.78-34.71-3.04l0,0C147.11,126.17,145.75,141.71,154.5,152.13z"/>
</g>
</svg>
