<?xml version="1.0" encoding="utf-8"?>
<!-- Generator: Adobe Illustrator 24.0.2, SVG Export Plug-In . SVG Version: 6.00 Build 0)  -->
<svg version="1.1" id="Capa_1" xmlns="http://www.w3.org/2000/svg" xmlns:xlink="http://www.w3.org/1999/xlink" x="0px" y="0px"
	 viewBox="0 0 595.28 595.28" style="enable-background:new 0 0 595.28 595.28;" xml:space="preserve">
<style type="text/css">
	.st0{fill:none;stroke:#EFF5F8;stroke-width:30;stroke-miterlimit:10;}
	.st1{fill:#FFFFFF;}
	.st2{fill:#EFF5F8;}
	.st3{fill:#FFFFFF;stroke:#1D1D1B;stroke-width:14;stroke-miterlimit:10;}
</style>
<circle class="st0" cx="297.64" cy="297.64" r="273.91"/>
<g>
	<g>
		<path class="st2" d="M277.64,108.85c0,3.21,0,6.42,0,9.62c0,8.65,0,17.3,0,25.96c0,12.83,0,25.66,0,38.48c0,15.65,0,31.3,0,46.95
			c0,17.08,0,34.16,0,51.25c0,17.36,0,34.72,0,52.08c0,16.08,0,32.15,0,48.23c0,13.63,0,27.27,0,40.9c0,9.8,0,19.6,0,29.41
			c0,4.63-0.03,9.27,0,13.9c0,0.2,0,0.41,0,0.61c0,5.13,2.23,10.52,5.86,14.14c3.47,3.47,9.16,6.08,14.14,5.86
			c5.17-0.23,10.54-1.93,14.14-5.86c3.59-3.91,5.86-8.72,5.86-14.14c0-3.21,0-6.42,0-9.62c0-8.65,0-17.3,0-25.96
			c0-12.83,0-25.66,0-38.48c0-15.65,0-31.3,0-46.95c0-17.08,0-34.16,0-51.25c0-17.36,0-34.72,0-52.08c0-16.08,0-32.15,0-48.23
			c0-13.63,0-27.27,0-40.9c0-9.8,0-19.6,0-29.41c0-4.63,0.03-9.27,0-13.9c0-0.2,0-0.41,0-0.61c0-5.13-2.23-10.52-5.86-14.14
			c-3.47-3.47-9.16-6.08-14.14-5.86c-5.17,0.23-10.54,1.93-14.14,5.86C279.9,98.63,277.64,103.44,277.64,108.85L277.64,108.85z"/>
	</g>
</g>
<g>
	<g>
		<line class="st1" x1="383.39" y1="395.99" x2="297.64" y2="466.24"/>
		<g>
			<path class="st2" d="M369.25,381.84c-2.84,2.33-5.68,4.66-8.53,6.99c-6.83,5.59-13.65,11.18-20.48,16.78
				c-8.26,6.77-16.52,13.53-24.78,20.3c-7.14,5.85-14.28,11.7-21.42,17.55c-3.47,2.84-6.99,5.63-10.41,8.53
				c-0.05,0.04-0.1,0.08-0.15,0.12c-1.95,1.81-3.33,3.96-4.14,6.44c-1.25,2.38-1.83,4.95-1.72,7.71c-0.1,2.75,0.47,5.32,1.72,7.71
				c0.81,2.48,2.19,4.63,4.14,6.44c3.81,3.5,8.82,6.1,14.14,5.86c1.77-0.24,3.54-0.48,5.32-0.71c3.39-0.95,6.33-2.66,8.83-5.14
				c2.84-2.33,5.68-4.66,8.53-6.99c6.83-5.59,13.65-11.18,20.48-16.78c8.26-6.77,16.52-13.53,24.78-20.3
				c7.14-5.85,14.28-11.7,21.42-17.55c3.47-2.84,6.99-5.63,10.41-8.53c0.05-0.04,0.1-0.08,0.15-0.12c1.95-1.81,3.33-3.96,4.14-6.44
				c1.25-2.38,1.83-4.95,1.72-7.71c0.1-2.75-0.47-5.32-1.72-7.71c-0.81-2.48-2.19-4.63-4.14-6.44c-3.81-3.5-8.82-6.1-14.14-5.86
				c-1.77,0.24-3.54,0.48-5.32,0.71C374.69,377.65,371.75,379.36,369.25,381.84L369.25,381.84z"/>
		</g>
	</g>
	<g>
		<line class="st1" x1="211.88" y1="395.99" x2="297.64" y2="466.24"/>
		<g>
			<path class="st2" d="M197.74,410.13c2.84,2.33,5.68,4.66,8.53,6.99c6.83,5.59,13.65,11.18,20.48,16.78
				c8.26,6.77,16.52,13.53,24.78,20.3c7.14,5.85,14.28,11.7,21.42,17.55c3.47,2.84,6.93,5.69,10.41,8.53
				c0.05,0.04,0.1,0.08,0.15,0.12c1.81,1.95,3.96,3.33,6.44,4.14c2.38,1.25,4.95,1.83,7.71,1.72c2.75,0.1,5.32-0.47,7.71-1.72
				c2.48-0.81,4.63-2.19,6.44-4.14c3.5-3.81,6.1-8.82,5.86-14.14c-0.24-1.77-0.48-3.54-0.71-5.32c-0.95-3.39-2.66-6.33-5.14-8.83
				c-2.84-2.33-5.68-4.66-8.53-6.99c-6.83-5.59-13.65-11.18-20.48-16.78c-8.26-6.77-16.52-13.53-24.78-20.3
				c-7.14-5.85-14.28-11.7-21.42-17.55c-3.47-2.84-6.93-5.69-10.41-8.53c-0.05-0.04-0.1-0.08-0.15-0.12
				c-1.81-1.95-3.96-3.33-6.44-4.14c-2.38-1.25-4.95-1.83-7.71-1.72c-2.75-0.1-5.32,0.47-7.71,1.72c-2.48,0.81-4.63,2.19-6.44,4.14
				c-3.5,3.81-6.1,8.82-5.86,14.14c0.24,1.77,0.48,3.54,0.71,5.32C193.55,404.69,195.26,407.63,197.74,410.13L197.74,410.13z"/>
		</g>
	</g>
</g>
</svg>
