<?xml version="1.0" encoding="utf-8"?>
<!-- Generator: Adobe Illustrator 24.0.2, SVG Export Plug-In . SVG Version: 6.00 Build 0)  -->
<svg version="1.1" xmlns="http://www.w3.org/2000/svg" xmlns:xlink="http://www.w3.org/1999/xlink" x="0px" y="0px"
	 viewBox="0 0 708.66 708.66" style="enable-background:new 0 0 708.66 708.66;" xml:space="preserve">
<style type="text/css">
	.st0{fill:#EFF5F8;}
	.st1{fill:none;stroke:#0A2240;stroke-width:10.5;stroke-miterlimit:10;}
	.st2{fill:#A2A9AD;}
	.st3{fill:#0A2240;}
</style>
<g id="Capa_2">
	<rect x="-85.76" y="-80.26" class="st0" width="910.78" height="844.74"/>
</g>
<g id="Capa_1">
	<g>
		<path class="st1" d="M517.9,372.15c0.81-7.04,1.24-14.2,1.26-21.47c0.03-12.82-1.97-25.14-4.41-37.22
			c-0.24-1.2,0.55-2.36,1.77-2.54c7.45-1.1,23.78-3.08,35.86-3.7c13.5-0.69,29.48-0.42,40.63,2.33
			c14.14,3.49,18.97,18.87,7.82,28.84c-22.57,20.19-51.34,32.7-80.91,42.06c-1.52,0.48-3-0.81-2.77-2.39
			C517.43,376.1,517.68,374.12,517.9,372.15z"/>
		<path class="st2" d="M583.88,382.04c1.33-0.87,2.83,0.91,1.72,2.05c-11.68,12.06-24.47,23.05-38.19,32.79
			c-0.26,0.19-0.57,0.41-0.83,0.6c-12.46,8.78-25.62,16.55-39.47,23.18c-1.77,0.86-3.62,1.72-5.43,2.51
			c-4.54,8.65-9.73,16.93-15.47,24.71c-0.15,0.23-0.34,0.45-0.49,0.68c-7.11,9.55-15.08,18.42-23.84,26.46
			c-0.23,0.26-0.49,0.49-0.76,0.68c-28.02,25.66-63.71,43.05-103.2,48.37c-8.63,1.22-17.45,1.8-26.41,1.78l-145.83-0.38
			c-0.78,0-1.56-0.12-2.29-0.38c-9.89-3.63-16.97-13.15-16.94-24.31c0.03-13.26,10.08-24.16,22.97-25.56l20.68,0.05l98.9,0.22
			l0.04,0c1.06-0.15,2.07-0.3,3.2-0.67c0.15-0.04,0.3-0.15,0.41-0.19c5.28-2.02,9.02-7.13,9.04-13.13c0.01-5.01-2.61-9.43-6.6-11.92
			c-0.94-0.61-1.73-1.21-3.09-1.63c-1.35-0.49-2.82-0.53-4.37-0.54l-184.15-0.48c-12.24-1.8-21.63-12.41-21.6-25.19
			c0.03-12.96,9.82-23.67,22.37-25.11c0.92-0.13,279.92,1.05,346.91,1.25c17.21,0.05,34.36-2.18,50.93-6.86
			c0.09-0.03,0.19-0.05,0.28-0.08C547.46,403.35,562.41,396.11,583.88,382.04z"/>
		<path class="st3" d="M519.5,315.16c-10.27-49.34-39.47-91.73-79.71-119.18c-10.46-7.11-21.63-13.2-33.41-18.13
			c-22.73-9.63-47.7-14.97-73.88-15.04c-2.37-0.01-4.75,0.03-7.08,0.13l-33.87,143.91c-0.27,1.02-0.53,2.07-0.72,3.12
			c-0.76,3.54-1.15,7.27-1.16,11.04c-0.06,21.59,12.37,40.31,30.5,49.28c1.02,0.49,2.03,0.98,3.05,1.44
			c11.06,5.23,22.58,9.74,34.4,13.46c4.82,1.48,9.67,2.89,14.61,4.11c6.93,1.75,13.93,3.24,21.05,4.46
			c14.95,2.56,30.32,3.92,45.99,3.96c28.11,0.07,55.2-4.08,80.73-11.85c0.34-0.07,0.64-0.19,0.94-0.26c0.54-3.09,0.96-6.21,1.3-9.34
			c0.81-7.04,1.24-14.2,1.26-21.47C523.54,341.21,522.14,327.94,519.5,315.16z M422.61,268.84c0,0.08,0,0.11-0.04,0.19l-0.11,0.53
			l-0.5,2.15c0,0.04,0,0.11-0.04,0.19l-0.27,1.09l-15.39,65.4c0,0.08,0,0.19-0.04,0.26l-0.27,1.13l-0.61,2.67
			c0,0.04,0,0.11-0.04,0.15c-2.51,7.19-9.41,12.33-17.44,12.31l-0.15,0c-10.1-0.1-18.29-8.34-18.26-18.51
			c0-0.79,0.04-1.58,0.19-2.37l0.84-3.58l11.58-49.29l3.92-16.6l0.88-3.8c2.51-7.19,9.41-12.33,17.44-12.31
			c10.17,0.03,18.44,8.3,18.41,18.51C422.73,267.59,422.69,268.23,422.61,268.84z"/>
		<circle class="st2" cx="124.06" cy="520.18" r="22.37"/>
	</g>
</g>
</svg>
