<?xml version="1.0" encoding="utf-8"?>
<!-- Generator: Adobe Illustrator 24.0.2, SVG Export Plug-In . SVG Version: 6.00 Build 0)  -->
<svg version="1.1" id="Capa_1" xmlns="http://www.w3.org/2000/svg" xmlns:xlink="http://www.w3.org/1999/xlink" x="0px" y="0px"
	 viewBox="0 0 708.66 708.66" style="enable-background:new 0 0 708.66 708.66;" xml:space="preserve">
<style type="text/css">
	.st0{fill:#EFF5F8;}
</style>
<g>
	<path class="st0" d="M632.14,229.96H76.52c-15.66,0-28.35-12.69-28.35-28.35v0c0-15.66,12.69-28.35,28.35-28.35h555.62
		c15.66,0,28.35,12.69,28.35,28.35v0C660.49,217.27,647.79,229.96,632.14,229.96z"/>
	<path class="st0" d="M632.14,382.68H76.52c-15.66,0-28.35-12.69-28.35-28.35v0c0-15.66,12.69-28.35,28.35-28.35h555.62
		c15.66,0,28.35,12.69,28.35,28.35v0C660.49,369.99,647.79,382.68,632.14,382.68z"/>
	<path class="st0" d="M632.14,535.39H76.52c-15.66,0-28.35-12.69-28.35-28.35v0c0-15.66,12.69-28.35,28.35-28.35h555.62
		c15.66,0,28.35,12.69,28.35,28.35v0C660.49,522.7,647.79,535.39,632.14,535.39z"/>
</g>
</svg>
