<?xml version="1.0" encoding="utf-8"?>
<!-- Generator: Adobe Illustrator 24.0.2, SVG Export Plug-In . SVG Version: 6.00 Build 0)  -->
<svg version="1.1" id="Capa_1" xmlns="http://www.w3.org/2000/svg" xmlns:xlink="http://www.w3.org/1999/xlink" x="0px" y="0px"
	 viewBox="0 0 708.66 708.66" style="enable-background:new 0 0 708.66 708.66;" xml:space="preserve">
<style type="text/css">
	.st0{fill:#0A2240;}
	.st1{fill:#A2A9AD;}
	.st2{fill:none;stroke:#0A2240;stroke-width:6;stroke-miterlimit:10;}
	.st3{fill:#003A5D;}
</style>
<g>
	<path class="st0" d="M49.27,449.15c5.69,0.01,11.05,1.11,16.06,3.3c5.02,2.19,9.4,5.15,13.14,8.87c3.75,3.73,6.72,8.12,8.92,13.19
		c2.2,5.07,3.29,13.25,3.27,19.02c-0.01,5.69-1.12,11.05-3.3,16.06c-2.19,5.02-5.15,9.42-8.87,13.2c-3.73,3.79-8.13,6.76-13.19,8.92
		c-5.07,2.16-10.49,3.24-16.26,3.22l-28.08-0.07c-3.23-0.01-5.84-2.63-5.83-5.86l0.19-74.1c0.01-3.23,2.63-5.84,5.86-5.83
		L49.27,449.15z M47.91,517.74c3.32,0.01,6.47-0.61,9.44-1.87c2.97-1.26,5.54-2.97,7.72-5.14c2.18-2.17,3.91-4.73,5.18-7.7
		c1.27-2.96,1.91-6.14,1.92-9.54c0.01-3.32-0.61-9.23-1.87-12.2c-1.26-2.97-2.97-5.56-5.14-7.78c-2.17-2.22-4.73-3.96-7.7-5.24
		c-2.96-1.27-6.1-1.92-9.43-1.92l-9.1-0.02c-3.23-0.01-5.85,2.6-5.86,5.83l-0.1,39.7c-0.01,3.23,2.6,5.85,5.83,5.86L47.91,517.74z"
		/>
	<path class="st1" d="M559.38,291.47c0.97-0.63,2.05,0.66,1.25,1.49c-8.47,8.74-17.74,16.71-27.68,23.77
		c-0.19,0.14-0.41,0.3-0.6,0.44c-9.03,6.37-18.58,12-28.61,16.81c-1.29,0.62-2.63,1.25-3.94,1.82c-3.29,6.27-7.05,12.27-11.22,17.92
		c-0.11,0.16-0.25,0.33-0.36,0.49c-5.15,6.92-10.93,13.35-17.28,19.18c-0.16,0.19-0.36,0.35-0.55,0.49
		c-20.31,18.6-46.18,31.21-74.82,35.07c-6.26,0.89-12.65,1.31-19.15,1.29l-105.72-0.27c-0.56,0-1.13-0.08-1.66-0.28
		c-7.17-2.63-12.3-9.54-12.28-17.62c0.02-9.61,7.31-17.52,16.65-18.53l14.99,0.04l71.7,0.16l0.03,0c0.77-0.11,1.5-0.21,2.32-0.49
		c0.11-0.03,0.22-0.11,0.3-0.14c3.83-1.46,6.54-5.17,6.55-9.52c0.01-3.63-1.89-6.83-4.78-8.64c-0.68-0.44-1.25-0.88-2.24-1.18
		c-0.98-0.36-2.05-0.39-3.17-0.39l-133.5-0.35c-8.87-1.31-15.68-9-15.66-18.26c0.02-9.4,7.12-17.16,16.22-18.2
		c0.67-0.1,202.93,0.76,251.49,0.91c12.48,0.04,24.91-1.58,36.92-4.97c0.07-0.02,0.14-0.04,0.2-0.06
		C532.98,306.92,543.81,301.67,559.38,291.47z"/>
	<path class="st2" d="M511.55,285.21c0.59-5.11,0.9-10.29,0.91-15.57c0.02-9.29-1.43-18.23-3.2-26.98c-0.18-0.87,0.4-1.71,1.28-1.84
		c5.4-0.8,17.24-2.24,26-2.68c9.79-0.5,21.37-0.31,29.45,1.69c10.25,2.53,13.75,13.68,5.67,20.91
		c-16.36,14.64-37.22,23.7-58.66,30.5c-1.1,0.35-2.17-0.59-2-1.73C511.21,288.07,511.39,286.64,511.55,285.21z"/>
	<path class="st0" d="M512.71,242.99c-7.45-35.77-28.62-66.5-57.79-86.4c-7.58-5.15-15.68-9.57-24.22-13.15
		c-16.48-6.98-34.58-10.85-53.56-10.9c-1.72,0-3.44,0.02-5.14,0.1l-24.55,104.33c-0.19,0.74-0.39,1.5-0.52,2.27
		c-0.55,2.57-0.83,5.27-0.84,8c-0.04,15.65,8.96,29.22,22.11,35.73c0.74,0.36,1.47,0.71,2.21,1.04c8.02,3.79,16.37,7.06,24.94,9.76
		c3.49,1.07,7.01,2.09,10.59,2.98c5.02,1.27,10.1,2.35,15.26,3.24c10.84,1.86,21.98,2.84,33.34,2.87
		c20.38,0.05,40.02-2.96,58.53-8.59c0.25-0.05,0.46-0.14,0.68-0.19c0.39-2.24,0.69-4.5,0.95-6.77c0.59-5.11,0.9-10.29,0.91-15.57
		C515.64,261.87,514.62,252.25,512.71,242.99z M442.46,209.4c0,0.05,0,0.08-0.03,0.14l-0.08,0.38l-0.36,1.56
		c0,0.03,0,0.08-0.03,0.14l-0.19,0.79l-11.16,47.41c0,0.05,0,0.14-0.03,0.19l-0.19,0.82l-0.44,1.94c0,0.03,0,0.08-0.03,0.11
		c-1.82,5.21-6.82,8.94-12.64,8.93l-0.11,0c-7.32-0.07-13.26-6.04-13.24-13.42c0-0.57,0.03-1.15,0.14-1.72l0.61-2.59l8.4-35.73
		l2.84-12.04l0.64-2.76c1.82-5.21,6.82-8.94,12.64-8.93c7.37,0.02,13.37,6.02,13.35,13.42C442.55,208.5,442.52,208.96,442.46,209.4z
		"/>
	<circle class="st1" cx="226.03" cy="391.62" r="16.22"/>
	<path class="st0" d="M166.52,476.73l-0.13,51.13c-0.01,4.08-3.33,7.38-7.4,7.37l-3.03-0.01c-4.08-0.01-7.38-3.33-7.37-7.4l0-0.17
		c-2.54,2.15-5.31,3.87-8.32,5.18c-3.01,1.3-6.17,1.96-9.49,1.95c-4.51-0.01-8.76-0.87-12.75-2.58c-3.99-1.71-7.44-4.05-10.36-7.03
		c-2.92-2.97-5.22-6.44-6.91-10.4c-1.69-3.96-2.53-8.15-2.52-12.58c0.01-4.51,0.89-8.76,2.64-12.75c1.75-3.99,4.11-7.44,7.08-10.36
		c2.97-2.92,6.44-5.22,10.4-6.91c3.96-1.69,8.15-2.53,12.58-2.52c3.32,0.01,6.48,0.67,9.48,1.98c3,1.31,5.76,3,8.29,5.06l0,0
		c0.01-4.08,3.33-7.38,7.4-7.37l3.03,0.01C163.23,469.34,166.53,472.65,166.52,476.73z M132.72,518.64
		c2.21,0.01,4.33-0.42,6.35-1.28s3.78-2.02,5.29-3.47c1.51-1.45,2.7-3.19,3.57-5.19c0.87-2,1.32-4.15,1.32-6.44
		c0.01-2.28-0.42-4.43-1.29-6.44c-0.87-2.01-2.05-3.75-3.55-5.21c-1.5-1.46-3.26-2.63-5.27-3.5c-2.01-0.87-4.13-1.31-6.34-1.32
		c-2.3-0.01-4.45,0.42-6.47,1.28c-2.02,0.86-3.76,2.02-5.23,3.48c-1.47,1.45-2.64,3.18-3.51,5.19c-0.88,2.01-1.32,4.15-1.32,6.44
		c-0.01,2.28,0.42,4.44,1.29,6.44c0.86,2.01,2.02,3.75,3.48,5.21c1.46,1.46,3.2,2.63,5.21,3.5
		C128.28,518.19,130.43,518.63,132.72,518.64z"/>
	<path class="st0" d="M214.23,469.86c1.9,0,3.46,0.21,3.48,0.21c3.95,0.83,6.27,4.2,5.38,9.59c-0.39,3.87-4.32,6.14-8.31,6.33
		c-2.84,0.13-5.38,0.3-7.59,0.93c-2.22,0.63-4.1,1.39-5.64,2.3c-1.54,0.91-2.73,1.89-3.57,2.96c-0.83,1.06-1.25,2.07-1.25,3.02
		l-0.08,32.69c-0.01,4.11-3.35,7.43-7.46,7.42l-2.91-0.01c-4.11-0.01-7.43-3.35-7.42-7.46l0.13-51.02c0.01-4.11,3.35-7.43,7.46-7.42
		l2.91,0.01c4.11,0.01,7.43,3.35,7.42,7.46l-0.01,4.69c0.32-1.18,1.13-2.47,2.44-3.85c1.31-1.38,2.81-2.64,4.52-3.78
		c1.7-1.14,3.48-2.11,5.35-2.89C210.92,470.24,212.64,469.85,214.23,469.86z"/>
	<path class="st0" d="M272.2,533.4l-22.14-21.93l-0.04,16.62c-0.01,4.07-3.32,7.36-7.39,7.35l-3.05-0.01
		c-4.07-0.01-7.36-3.32-7.35-7.39l0.18-71.05c0.01-4.07,3.32-7.36,7.39-7.35l3.05,0.01c4.07,0.01,7.36,3.32,7.35,7.39l-0.09,36.28
		l17.8-18.65c1.4-1.46,3.33-2.29,5.35-2.28l1.58,0c6.48,0.02,9.79,7.79,5.31,12.47l-16.54,17.28l21.11,20.78
		c4.71,4.63,1.41,12.64-5.19,12.63l-2.16-0.01C275.43,535.53,273.57,534.76,272.2,533.4z"/>
	<path class="st0" d="M347.5,535.71l-2.35-0.01c-4.26-0.01-7.71-3.48-7.7-7.74l0.18-70.35c0.01-4.26,3.48-7.71,7.74-7.7l2.35,0.01
		c4.26,0.01,7.71,3.48,7.7,7.74l-0.18,70.35C355.22,532.28,351.76,535.72,347.5,535.71z"/>
	<path class="st0" d="M405.45,470.35c3.56,0.01,6.87,0.69,9.96,2.04c3.08,1.35,5.78,3.2,8.11,5.54c2.33,2.34,4.16,5.05,5.5,8.14
		c1.33,3.09,2,6.41,1.99,9.97l-0.08,32.04c-0.01,4.34-3.54,7.84-7.87,7.83l-2.09-0.01c-4.34-0.01-7.84-3.54-7.83-7.87l0.07-28.65
		c0-1.1-0.09-2.21-0.43-3.26c-0.73-2.29-1.89-4.24-3.47-5.83c-1.18-1.19-2.56-2.12-4.14-2.8c-1.58-0.67-3.24-1.02-4.98-1.02
		c-1.82,0-3.52,0.35-5.11,1.06s-2.97,1.65-4.16,2.83c-1.19,1.18-2.15,2.57-2.86,4.15c-0.72,1.58-1.08,3.28-1.08,5.1l-0.07,28.36
		c-0.01,4.34-3.54,7.84-7.87,7.83l-2.09-0.01c-4.34-0.01-7.84-3.54-7.83-7.87l0.13-50.2c0.01-4.34,3.54-7.84,7.87-7.83l2.09,0.01
		c4.34,0.01,7.84,3.54,7.83,7.87l0,1.79c2.46-2.76,5.21-4.99,8.26-6.68S401.72,470.34,405.45,470.35z"/>
	<path class="st0" d="M507.85,457.89l-0.18,70.68c-0.01,4.17-3.4,7.55-7.58,7.54l-2.68-0.01c-4.17-0.01-7.55-3.4-7.54-7.58l0,0
		c-2.61,2.15-5.43,3.87-8.44,5.18c-3.01,1.3-6.17,1.96-9.49,1.95c-4.51-0.01-8.74-0.87-12.69-2.58c-3.95-1.71-7.39-4.05-10.3-7.03
		c-2.92-2.97-5.23-6.44-6.91-10.4c-1.69-3.96-2.53-8.15-2.52-12.58c0.01-4.51,0.87-8.76,2.59-12.75c1.71-3.99,4.05-7.44,7.03-10.36
		c2.97-2.92,6.44-5.22,10.4-6.91c3.97-1.69,8.17-2.53,12.61-2.52c3.26,0.01,6.52,0.69,9.52,1.98c3.04,1.31,5.82,3,8.35,5.06
		l0.05-19.73c0.01-4.17,3.4-7.55,7.58-7.54l2.68,0.01C504.48,450.33,507.86,453.72,507.85,457.89z M473.82,519.52
		c2.3,0.01,4.46-0.42,6.49-1.28c2.03-0.86,3.78-2.02,5.25-3.47c1.47-1.45,2.65-3.19,3.53-5.19c0.88-2,1.32-4.15,1.33-6.44
		s-0.42-4.43-1.29-6.44c-0.87-2.01-2.03-3.75-3.5-5.21c-1.46-1.46-3.2-2.63-5.23-3.5c-2.02-0.87-4.18-1.31-6.48-1.32
		c-2.3-0.01-4.47,0.42-6.49,1.28c-2.03,0.86-3.78,2.02-5.25,3.48c-1.47,1.45-2.64,3.18-3.52,5.19c-0.88,2.01-1.32,4.15-1.33,6.44
		s0.42,4.44,1.29,6.44c0.87,2.01,2.03,3.75,3.49,5.21c1.47,1.46,3.21,2.63,5.23,3.5C469.36,519.08,471.52,519.51,473.82,519.52z"/>
	<path class="st0" d="M528.82,442.88c2.67,0.01,4.97,0.88,6.91,2.62c2.3,2.06,3.62,5.12,3.55,8.2c-0.06,2.75-1.03,5.1-2.92,7.06
		c-2.12,2.21-5.2,3.39-8.25,3.21c-2.63-0.15-4.89-1.18-6.78-3.08c-2.28-2.31-3.29-5.17-3-8.57c0.17-2.05,1-4.04,2.33-5.61
		C522.85,444.15,525.57,442.87,528.82,442.88z M527.42,470.28l2.78,0.01c4.15,0.01,7.5,3.38,7.49,7.53l-0.13,50.89
		c-0.01,4.15-3.38,7.5-7.53,7.49l-2.78-0.01c-4.15-0.01-7.5-3.38-7.49-7.53l0.13-50.89C519.91,473.62,523.28,470.27,527.42,470.28z"
		/>
	<path class="st0" d="M607.78,470.49c4.08,0.01,7.38,3.33,7.37,7.4l-0.16,60.8c-0.01,4.51-0.93,8.73-2.76,12.68
		s-4.25,7.38-7.26,10.3c-3.01,2.92-6.48,5.22-10.4,6.91c-3.92,1.69-7.98,2.53-12.17,2.52c-6.25-0.02-11.96-1.15-17.07-3.51
		c-2.26-1.04-4.8-2.76-7.26-5.01c-5.79-5.29-1.68-14.97,6.15-14.67h0c2.17,0.08,4.17,1.03,5.72,2.55c1.02,0.99,2.14,1.86,3.37,2.59
		c2.13,1.27,5.17,1.91,9.13,1.92c1.9,0,3.74-0.46,5.52-1.4c1.78-0.94,3.37-2.2,4.75-3.77c1.39-1.57,2.5-3.32,3.34-5.25
		c0.83-1.93,1.25-3.92,1.26-5.97l0.03-9.78c-2.61,2.15-5.43,3.87-8.44,5.18s-6.17,1.96-9.49,1.95c-4.51-0.01-8.76-0.87-12.75-2.58
		s-7.45-4.05-10.36-7.03c-2.92-2.97-5.23-6.44-6.91-10.4c-1.69-3.96-2.53-8.15-2.52-12.58c0.01-4.51,0.9-8.76,2.65-12.75
		c1.75-3.99,4.11-7.44,7.09-10.36c2.97-2.92,6.44-5.22,10.4-6.91c3.96-1.69,8.15-2.53,12.58-2.52c3.32,0.01,6.48,0.67,9.48,1.98
		c3,1.31,5.81,3,8.41,5.06l0,0c0.01-4.08,3.33-7.38,7.4-7.37L607.78,470.49z M581.35,519.8c2.29,0.01,4.45-0.42,6.47-1.28
		c2.02-0.86,3.76-2.02,5.23-3.47c1.46-1.45,2.63-3.19,3.51-5.19c0.87-2,1.31-4.15,1.32-6.44s-0.42-4.43-1.29-6.44
		c-0.87-2.01-2.03-3.75-3.48-5.21c-1.46-1.46-3.2-2.63-5.21-3.5c-2.01-0.87-4.17-1.31-6.46-1.32c-2.3-0.01-4.45,0.42-6.47,1.28
		s-3.76,2.02-5.23,3.48c-1.46,1.45-2.64,3.18-3.51,5.19c-0.88,2.01-1.31,4.15-1.32,6.44c-0.01,2.28,0.42,4.44,1.29,6.44
		c0.86,2.01,2.03,3.75,3.48,5.21c1.46,1.46,3.2,2.63,5.21,3.5C576.9,519.36,579.06,519.79,581.35,519.8z"/>
	<path class="st0" d="M659.07,536.14c-4.89-0.01-9.48-0.88-13.73-2.59c-4.26-1.71-7.96-4.05-11.11-7.03
		c-3.15-2.97-5.62-6.44-7.43-10.4c-1.81-3.96-2.71-8.15-2.69-12.58c0.01-4.51,0.95-8.76,2.82-12.75c1.86-3.99,4.4-7.44,7.6-10.36
		c3.21-2.92,6.92-5.22,11.15-6.91s8.75-2.53,13.57-2.52c4.82,0.01,9.35,0.89,13.61,2.65c4.26,1.75,7.96,4.11,11.11,7.09
		c3.16,2.97,5.63,6.44,7.44,10.4c1.81,3.96,2.71,8.15,2.69,12.58c-0.01,4.51-0.95,8.74-2.82,12.68c-1.86,3.95-4.38,7.38-7.55,10.3
		c-3.16,2.92-6.88,5.22-11.15,6.91C668.3,535.31,663.8,536.15,659.07,536.14z M659.25,487.14c-2.61-0.01-4.96,0.46-7.06,1.4
		c-2.1,0.94-3.88,2.2-5.35,3.77c-1.46,1.57-2.62,3.34-3.45,5.31c-0.83,1.97-1.25,3.94-1.26,5.9c-0.01,2.05,0.36,4.04,1.11,5.97
		c0.74,1.93,1.85,3.69,3.31,5.27c1.46,1.58,3.26,2.85,5.39,3.8s4.54,1.43,7.23,1.44s5.08-0.46,7.18-1.4c2.1-0.94,3.88-2.2,5.35-3.77
		c1.46-1.57,2.59-3.32,3.39-5.25s1.2-3.92,1.2-5.97c0.01-1.97-0.4-3.94-1.23-5.91c-0.82-1.97-1.97-3.75-3.42-5.33
		c-1.46-1.58-3.24-2.85-5.33-3.8C664.21,487.63,661.86,487.15,659.25,487.14z"/>
	<g>
		<g>
			<path class="st3" d="M57.73,570.52h-4.16l-2.27-5.41H40.7l-2.31,5.41h-4.03l9.86-22.58h3.65L57.73,570.52z M45.98,552.65
				l-3.84,8.97h7.72L45.98,552.65z"/>
			<path class="st3" d="M80.98,573.63c-1.58,1.39-3.82,2.08-6.72,2.08c-2.82,0-5.34-0.67-7.56-2.02l1.44-2.91
				c0.9,0.55,1.84,0.99,2.82,1.31c0.98,0.32,2.05,0.48,3.2,0.48c1.73,0,3.05-0.44,3.97-1.32c0.92-0.88,1.38-2.18,1.38-3.9v-1.32
				c-0.71,0.93-1.53,1.68-2.46,2.27c-0.94,0.58-2.1,0.87-3.49,0.87c-1,0-1.96-0.18-2.88-0.53s-1.73-0.87-2.45-1.55
				c-0.72-0.68-1.29-1.52-1.71-2.5s-0.64-2.1-0.64-3.36c0-1.26,0.21-2.38,0.64-3.36c0.43-0.98,1-1.81,1.71-2.5
				c0.71-0.68,1.54-1.21,2.46-1.57c0.93-0.36,1.88-0.54,2.87-0.54c1.43,0,2.61,0.28,3.54,0.86c0.93,0.57,1.72,1.26,2.39,2.06v-2.56
				h3.88v13.45C83.36,570.05,82.57,572.24,80.98,573.63z M79.15,559.31c-0.27-0.59-0.63-1.08-1.07-1.48
				c-0.45-0.4-0.98-0.72-1.58-0.94c-0.61-0.22-1.25-0.34-1.91-0.34c-0.68,0-1.31,0.11-1.89,0.34c-0.58,0.22-1.08,0.53-1.52,0.94
				c-0.44,0.4-0.78,0.89-1.03,1.46c-0.24,0.57-0.37,1.21-0.37,1.91c0,0.7,0.13,1.34,0.38,1.91c0.26,0.57,0.6,1.07,1.03,1.48
				c0.43,0.42,0.93,0.73,1.52,0.96c0.59,0.22,1.21,0.34,1.87,0.34c0.66,0,1.3-0.11,1.91-0.34c0.61-0.22,1.14-0.54,1.58-0.96
				c0.45-0.41,0.81-0.9,1.07-1.46c0.26-0.56,0.4-1.19,0.4-1.89S79.41,559.89,79.15,559.31z"/>
			<path class="st3" d="M99.21,566.63c0.88,0.74,1.94,1.11,3.2,1.11c0.96,0,1.79-0.17,2.5-0.51c0.71-0.34,1.4-0.84,2.08-1.5
				l2.27,2.02c-0.81,0.96-1.78,1.73-2.9,2.31c-1.12,0.58-2.46,0.86-4.02,0.86c-1.22,0-2.35-0.21-3.41-0.64
				c-1.06-0.43-1.98-1.03-2.75-1.79s-1.39-1.69-1.84-2.77c-0.45-1.08-0.67-2.28-0.67-3.61c0-1.22,0.2-2.36,0.61-3.42
				c0.4-1.07,0.98-2,1.71-2.8s1.61-1.44,2.61-1.9c1-0.47,2.12-0.71,3.33-0.71c1.34,0,2.52,0.24,3.54,0.74
				c1.01,0.49,1.86,1.15,2.53,1.98c0.67,0.83,1.18,1.81,1.52,2.91c0.34,1.11,0.51,2.27,0.51,3.49c0,0.17-0.01,0.34-0.02,0.51
				s-0.03,0.35-0.05,0.55H97.54C97.78,564.83,98.33,565.89,99.21,566.63z M106.19,560.88c-0.07-0.62-0.2-1.2-0.42-1.75
				c-0.21-0.54-0.5-1.01-0.86-1.41c-0.36-0.4-0.8-0.71-1.3-0.95c-0.5-0.23-1.07-0.35-1.71-0.35c-1.2,0-2.18,0.41-2.96,1.23
				c-0.78,0.82-1.26,1.9-1.43,3.22H106.19z"/>
			<path class="st3" d="M124.25,570.52h-3.91v-16.91h3.91v2.65c0.28-0.41,0.58-0.79,0.91-1.15c0.33-0.36,0.71-0.68,1.15-0.96
				c0.43-0.28,0.92-0.5,1.44-0.66c0.52-0.16,1.11-0.24,1.77-0.24c1.92,0,3.39,0.59,4.44,1.76s1.56,2.76,1.56,4.74v10.76h-3.91v-9.58
				c0-1.32-0.31-2.34-0.94-3.05c-0.63-0.71-1.51-1.07-2.65-1.07c-1.12,0-2.03,0.37-2.73,1.1c-0.7,0.73-1.05,1.76-1.05,3.08V570.52z"
				/>
			<path class="st3" d="M158.52,570.02c-1.07,0.59-2.42,0.88-4.07,0.88c-1.26,0-2.42-0.23-3.49-0.69c-1.07-0.46-1.99-1.09-2.78-1.89
				c-0.78-0.8-1.4-1.73-1.84-2.79c-0.44-1.06-0.66-2.19-0.66-3.41s0.22-2.36,0.66-3.43c0.44-1.07,1.05-2,1.84-2.81
				c0.79-0.81,1.72-1.45,2.8-1.92c1.08-0.47,2.25-0.71,3.51-0.71c1.6,0,2.93,0.27,3.99,0.8c1.06,0.53,1.98,1.24,2.77,2.11l-2.4,2.6
				c-0.6-0.62-1.23-1.13-1.91-1.52c-0.67-0.4-1.5-0.59-2.48-0.59c-0.7,0-1.35,0.14-1.95,0.43c-0.6,0.29-1.11,0.68-1.54,1.17
				c-0.43,0.49-0.76,1.06-1.01,1.71c-0.25,0.65-0.37,1.35-0.37,2.1c0,0.77,0.12,1.48,0.37,2.14c0.24,0.66,0.59,1.24,1.04,1.73
				c0.45,0.49,0.98,0.88,1.6,1.17c0.62,0.29,1.3,0.43,2.05,0.43c0.92,0,1.72-0.2,2.42-0.59c0.69-0.4,1.35-0.9,1.97-1.52l2.34,2.31
				C160.54,568.68,159.58,569.44,158.52,570.02z"/>
			<path class="st3" d="M171.36,551.02v-3.68h4.19v3.68H171.36z M171.52,570.52v-16.91h3.91v16.91H171.52z"/>
			<path class="st3" d="M197.2,570.52v-2.08c-0.58,0.69-1.31,1.26-2.21,1.73c-0.9,0.47-1.98,0.71-3.27,0.71
				c-0.81,0-1.58-0.11-2.31-0.34c-0.72-0.22-1.36-0.55-1.9-0.99c-0.55-0.44-0.98-0.98-1.31-1.63c-0.33-0.65-0.5-1.4-0.5-2.26v-0.07
				c0-0.92,0.17-1.72,0.51-2.4c0.34-0.68,0.82-1.25,1.42-1.7c0.61-0.45,1.33-0.78,2.18-1.01c0.84-0.22,1.75-0.34,2.74-0.34
				c1.02,0,1.89,0.06,2.61,0.19c0.71,0.13,1.4,0.3,2.06,0.51v-0.42c0-1.17-0.36-2.07-1.07-2.69c-0.72-0.62-1.75-0.93-3.09-0.93
				c-0.96,0-1.81,0.1-2.56,0.29c-0.75,0.19-1.5,0.45-2.27,0.77l-1.06-3.11c0.94-0.43,1.9-0.77,2.88-1.03
				c0.98-0.26,2.17-0.38,3.56-0.38c2.52,0,4.39,0.62,5.6,1.87c1.22,1.25,1.83,3.01,1.83,5.27v10.02H197.2z M197.3,563.35
				c-0.49-0.19-1.07-0.35-1.75-0.48c-0.67-0.13-1.38-0.19-2.13-0.19c-1.22,0-2.17,0.23-2.85,0.7c-0.68,0.47-1.02,1.14-1.02,2.02
				v0.07c0,0.81,0.32,1.43,0.94,1.85c0.63,0.43,1.4,0.64,2.32,0.64c0.64,0,1.23-0.09,1.78-0.26c0.55-0.17,1.02-0.41,1.42-0.72
				c0.41-0.31,0.72-0.68,0.95-1.12c0.22-0.44,0.34-0.92,0.34-1.46V563.35z"/>
			<path class="st3" d="M240.79,570.52v-2.82c-0.62,0.88-1.39,1.62-2.32,2.24c-0.93,0.62-2.07,0.93-3.43,0.93
				c-1,0-1.97-0.19-2.91-0.58c-0.94-0.38-1.77-0.96-2.49-1.71c-0.72-0.76-1.31-1.68-1.76-2.77c-0.45-1.09-0.67-2.34-0.67-3.74
				c0-1.41,0.22-2.66,0.66-3.75c0.43-1.09,1.01-2.01,1.74-2.77c0.73-0.76,1.56-1.33,2.51-1.71c0.95-0.38,1.92-0.57,2.92-0.57
				c1.38,0,2.54,0.3,3.45,0.9c0.92,0.6,1.68,1.29,2.3,2.08v-9.1h3.91v23.38H240.79z M240.45,559.82c-0.26-0.66-0.62-1.23-1.07-1.71
				c-0.45-0.48-0.97-0.85-1.56-1.1c-0.6-0.26-1.21-0.39-1.85-0.39c-0.66,0-1.28,0.13-1.87,0.37c-0.59,0.24-1.1,0.6-1.55,1.07
				c-0.45,0.47-0.8,1.04-1.05,1.71c-0.26,0.67-0.38,1.44-0.38,2.29c0,0.83,0.13,1.58,0.38,2.26c0.26,0.67,0.61,1.24,1.05,1.71
				c0.45,0.47,0.96,0.83,1.55,1.09c0.59,0.26,1.21,0.38,1.87,0.38c0.64,0,1.25-0.13,1.85-0.38c0.6-0.26,1.12-0.62,1.56-1.11
				c0.45-0.48,0.8-1.05,1.07-1.71c0.27-0.66,0.4-1.41,0.4-2.24C240.85,561.23,240.72,560.49,240.45,559.82z"/>
			<path class="st3" d="M260.55,566.63c0.88,0.74,1.94,1.11,3.2,1.11c0.96,0,1.79-0.17,2.5-0.51c0.71-0.34,1.4-0.84,2.08-1.5
				l2.27,2.02c-0.81,0.96-1.78,1.73-2.9,2.31c-1.12,0.58-2.46,0.86-4.02,0.86c-1.22,0-2.35-0.21-3.41-0.64
				c-1.06-0.43-1.98-1.03-2.75-1.79c-0.78-0.77-1.39-1.69-1.84-2.77c-0.45-1.08-0.67-2.28-0.67-3.61c0-1.22,0.2-2.36,0.61-3.42
				c0.41-1.07,0.98-2,1.71-2.8c0.74-0.8,1.61-1.44,2.61-1.9c1-0.47,2.11-0.71,3.33-0.71c1.34,0,2.52,0.24,3.54,0.74
				c1.01,0.49,1.86,1.15,2.53,1.98c0.67,0.83,1.18,1.81,1.52,2.91c0.34,1.11,0.51,2.27,0.51,3.49c0,0.17-0.01,0.34-0.02,0.51
				c-0.01,0.17-0.03,0.35-0.05,0.55h-12.43C259.12,564.83,259.67,565.89,260.55,566.63z M267.53,560.88
				c-0.06-0.62-0.2-1.2-0.42-1.75c-0.21-0.54-0.5-1.01-0.86-1.41c-0.36-0.4-0.8-0.71-1.3-0.95c-0.5-0.23-1.07-0.35-1.71-0.35
				c-1.2,0-2.18,0.41-2.96,1.23c-0.78,0.82-1.25,1.9-1.42,3.22H267.53z"/>
			<path class="st3" d="M314.79,558.96c-0.47,0.96-1.11,1.76-1.92,2.41c-0.81,0.64-1.77,1.13-2.86,1.46
				c-1.09,0.33-2.26,0.49-3.5,0.49h-4.46v7.21h-3.91V548.1h8.84c1.3,0,2.48,0.18,3.54,0.53c1.06,0.35,1.95,0.86,2.69,1.52
				c0.74,0.66,1.3,1.45,1.7,2.37c0.4,0.92,0.59,1.96,0.59,3.11C315.5,556.89,315.27,558,314.79,558.96z M310.18,552.67
				c-0.88-0.67-2.06-1.01-3.53-1.01h-4.59v8.1h4.59c1.5,0,2.68-0.37,3.55-1.11c0.87-0.74,1.3-1.72,1.3-2.94
				C311.5,554.36,311.06,553.35,310.18,552.67z"/>
			<path class="st3" d="M336.73,553.61h3.91v16.91h-3.91v-2.65c-0.55,0.82-1.25,1.52-2.08,2.12c-0.83,0.59-1.9,0.89-3.2,0.89
				c-1.92,0-3.39-0.59-4.44-1.76c-1.04-1.18-1.56-2.76-1.56-4.74v-10.76h3.91v9.58c0,1.32,0.31,2.34,0.94,3.05
				c0.63,0.71,1.51,1.07,2.65,1.07c1.12,0,2.03-0.36,2.73-1.1c0.7-0.74,1.05-1.76,1.05-3.08V553.61z"/>
			<path class="st3" d="M368.74,565.81c-0.44,1.09-1.03,2.01-1.76,2.77c-0.74,0.76-1.58,1.33-2.53,1.71
				c-0.95,0.39-1.93,0.58-2.93,0.58c-1.39,0-2.54-0.3-3.46-0.9s-1.68-1.29-2.27-2.08l0.03,2.62h-3.91v-23.38h3.91v9.29
				c0.62-0.9,1.38-1.65,2.3-2.26c0.92-0.61,2.06-0.91,3.42-0.91c1,0,1.97,0.19,2.91,0.57c0.94,0.39,1.77,0.96,2.51,1.71
				c0.73,0.76,1.32,1.68,1.77,2.77c0.45,1.09,0.67,2.34,0.67,3.75C369.4,563.48,369.18,564.72,368.74,565.81z M365.11,559.81
				c-0.26-0.67-0.6-1.24-1.04-1.71c-0.44-0.47-0.95-0.83-1.54-1.09c-0.59-0.26-1.21-0.39-1.87-0.39c-0.66,0-1.29,0.13-1.89,0.39
				c-0.6,0.26-1.12,0.62-1.57,1.1c-0.45,0.48-0.81,1.05-1.07,1.71c-0.27,0.66-0.4,1.41-0.4,2.24c0,0.83,0.13,1.58,0.4,2.24
				c0.26,0.66,0.62,1.23,1.07,1.71c0.45,0.48,0.97,0.85,1.57,1.11c0.6,0.26,1.23,0.38,1.89,0.38c0.66,0,1.29-0.13,1.87-0.38
				c0.59-0.26,1.1-0.62,1.54-1.09c0.44-0.47,0.78-1.04,1.04-1.71c0.26-0.67,0.38-1.43,0.38-2.26
				C365.49,561.23,365.36,560.48,365.11,559.81z"/>
			<path class="st3" d="M380,570.52v-23.38h3.91v23.38H380z"/>
			<path class="st3" d="M395.4,551.02v-3.68h4.19v3.68H395.4z M395.56,570.52v-16.91h3.91v16.91H395.56z"/>
			<path class="st3" d="M422.82,570.02c-1.07,0.59-2.42,0.88-4.07,0.88c-1.26,0-2.42-0.23-3.49-0.69c-1.07-0.46-1.99-1.09-2.78-1.89
				c-0.78-0.8-1.4-1.73-1.84-2.79c-0.44-1.06-0.66-2.19-0.66-3.41s0.22-2.36,0.66-3.43c0.44-1.07,1.05-2,1.84-2.81
				c0.79-0.81,1.72-1.45,2.8-1.92c1.08-0.47,2.25-0.71,3.51-0.71c1.6,0,2.93,0.27,3.99,0.8c1.06,0.53,1.98,1.24,2.77,2.11l-2.4,2.6
				c-0.6-0.62-1.23-1.13-1.91-1.52c-0.67-0.4-1.5-0.59-2.48-0.59c-0.7,0-1.35,0.14-1.95,0.43c-0.6,0.29-1.11,0.68-1.54,1.17
				c-0.43,0.49-0.76,1.06-1.01,1.71c-0.25,0.65-0.37,1.35-0.37,2.1c0,0.77,0.12,1.48,0.37,2.14c0.24,0.66,0.59,1.24,1.04,1.73
				c0.45,0.49,0.98,0.88,1.6,1.17c0.62,0.29,1.3,0.43,2.05,0.43c0.92,0,1.72-0.2,2.42-0.59c0.69-0.4,1.35-0.9,1.97-1.52l2.34,2.31
				C424.83,568.68,423.88,569.44,422.82,570.02z"/>
			<path class="st3" d="M435.66,551.02v-3.68h4.19v3.68H435.66z M435.82,570.52v-16.91h3.91v16.91H435.82z"/>
			<path class="st3" d="M463.87,570.52v-2.82c-0.62,0.88-1.39,1.62-2.32,2.24s-2.07,0.93-3.43,0.93c-1,0-1.97-0.19-2.91-0.58
				c-0.94-0.38-1.77-0.96-2.49-1.71c-0.73-0.76-1.31-1.68-1.76-2.77c-0.45-1.09-0.67-2.34-0.67-3.74c0-1.41,0.22-2.66,0.66-3.75
				c0.43-1.09,1.01-2.01,1.74-2.77c0.73-0.76,1.56-1.33,2.51-1.71c0.95-0.38,1.92-0.57,2.92-0.57c1.38,0,2.54,0.3,3.45,0.9
				c0.92,0.6,1.68,1.29,2.3,2.08v-9.1h3.91v23.38H463.87z M463.53,559.82c-0.26-0.66-0.62-1.23-1.07-1.71
				c-0.45-0.48-0.97-0.85-1.56-1.1c-0.6-0.26-1.21-0.39-1.85-0.39c-0.66,0-1.28,0.13-1.87,0.37s-1.1,0.6-1.55,1.07
				c-0.45,0.47-0.8,1.04-1.05,1.71c-0.26,0.67-0.38,1.44-0.38,2.29c0,0.83,0.13,1.58,0.38,2.26c0.26,0.67,0.61,1.24,1.05,1.71
				c0.45,0.47,0.96,0.83,1.55,1.09c0.59,0.26,1.21,0.38,1.87,0.38c0.64,0,1.25-0.13,1.85-0.38c0.6-0.26,1.12-0.62,1.56-1.11
				c0.45-0.48,0.8-1.05,1.07-1.71c0.27-0.66,0.4-1.41,0.4-2.24C463.94,561.23,463.8,560.49,463.53,559.82z"/>
			<path class="st3" d="M489.36,570.52v-2.08c-0.58,0.69-1.31,1.26-2.21,1.73c-0.9,0.47-1.98,0.71-3.27,0.71
				c-0.81,0-1.58-0.11-2.31-0.34c-0.73-0.22-1.36-0.55-1.9-0.99c-0.54-0.44-0.98-0.98-1.31-1.63c-0.33-0.65-0.49-1.4-0.49-2.26
				v-0.07c0-0.92,0.17-1.72,0.51-2.4c0.34-0.68,0.82-1.25,1.42-1.7c0.61-0.45,1.33-0.78,2.18-1.01c0.84-0.22,1.76-0.34,2.74-0.34
				c1.03,0,1.9,0.06,2.61,0.19c0.72,0.13,1.4,0.3,2.07,0.51v-0.42c0-1.17-0.36-2.07-1.07-2.69c-0.72-0.62-1.75-0.93-3.09-0.93
				c-0.96,0-1.82,0.1-2.56,0.29c-0.75,0.19-1.5,0.45-2.27,0.77l-1.06-3.11c0.94-0.43,1.9-0.77,2.88-1.03
				c0.98-0.26,2.17-0.38,3.55-0.38c2.52,0,4.39,0.62,5.6,1.87c1.22,1.25,1.83,3.01,1.83,5.27v10.02H489.36z M489.46,563.35
				c-0.49-0.19-1.07-0.35-1.75-0.48c-0.67-0.13-1.38-0.19-2.13-0.19c-1.22,0-2.17,0.23-2.85,0.7s-1.03,1.14-1.03,2.02v0.07
				c0,0.81,0.32,1.43,0.95,1.85c0.63,0.43,1.4,0.64,2.32,0.64c0.64,0,1.23-0.09,1.78-0.26c0.54-0.17,1.02-0.41,1.42-0.72
				c0.4-0.31,0.72-0.68,0.94-1.12c0.22-0.44,0.34-0.92,0.34-1.46V563.35z"/>
			<path class="st3" d="M516.94,570.52v-2.82c-0.62,0.88-1.39,1.62-2.32,2.24s-2.07,0.93-3.43,0.93c-1,0-1.97-0.19-2.91-0.58
				c-0.94-0.38-1.77-0.96-2.49-1.71c-0.73-0.76-1.31-1.68-1.76-2.77c-0.45-1.09-0.67-2.34-0.67-3.74c0-1.41,0.22-2.66,0.65-3.75
				c0.44-1.09,1.02-2.01,1.74-2.77c0.72-0.76,1.56-1.33,2.51-1.71c0.95-0.38,1.92-0.57,2.92-0.57c1.38,0,2.53,0.3,3.45,0.9
				c0.92,0.6,1.68,1.29,2.3,2.08v-9.1h3.91v23.38H516.94z M516.6,559.82c-0.27-0.66-0.62-1.23-1.07-1.71
				c-0.45-0.48-0.97-0.85-1.56-1.1c-0.6-0.26-1.21-0.39-1.85-0.39c-0.66,0-1.28,0.13-1.87,0.37c-0.59,0.24-1.1,0.6-1.55,1.07
				c-0.45,0.47-0.8,1.04-1.05,1.71c-0.26,0.67-0.38,1.44-0.38,2.29c0,0.83,0.13,1.58,0.38,2.26c0.25,0.67,0.61,1.24,1.05,1.71
				c0.45,0.47,0.96,0.83,1.55,1.09c0.58,0.26,1.21,0.38,1.87,0.38c0.64,0,1.26-0.13,1.85-0.38c0.59-0.26,1.11-0.62,1.56-1.11
				c0.45-0.48,0.8-1.05,1.07-1.71c0.26-0.66,0.4-1.41,0.4-2.24C517,561.23,516.87,560.49,516.6,559.82z"/>
		</g>
	</g>
</g>
</svg>
